<?xml version="1.0" encoding="utf-8"?><svg viewBox="0 0 512 512" xmlns="http://www.w3.org/2000/svg" xmlns:xlink="http://www.w3.org/1999/xlink"><style>:root>svg{display:none}:root>svg:target{display:block}</style><svg fill="none" viewBox="0 0 54 53" id="car" xmlns="http://www.w3.org/2000/svg"><path d="M53.165 50.895h-7.628a5.221 5.221 0 0 0 2.405-4.396 5.23 5.23 0 1 0-10.462 0c0 1.847.953 3.467 2.396 4.396h-22.9a5.221 5.221 0 0 0 2.405-4.396 5.23 5.23 0 1 0-10.462 0c0 1.847.953 3.467 2.397 4.396H1.123a.837.837 0 0 0-.835.835c0 .455.371.835.835.835h52.042c.464 0 .835-.38.835-.835a.837.837 0 0 0-.835-.835Zm-10.463-6.506a2.11 2.11 0 1 1-2.109 2.11 2.105 2.105 0 0 1 2.11-2.11Zm-28.56 0a2.11 2.11 0 1 1-.002 4.22 2.11 2.11 0 0 1 .002-4.22ZM2.464 15.145l7.113.084a2.202 2.202 0 0 0 2.236-2.185 2.208 2.208 0 0 0-2.186-2.236h-.033c.008-.042.008-.067.008-.11a2.962 2.962 0 0 0-2.92-2.986 2.947 2.947 0 0 0-2.978 2.784 2.454 2.454 0 0 0-1.19-.32C1.148 10.15.017 11.256 0 12.63a2.488 2.488 0 0 0 2.464 2.514ZM41.75 2.565c.464 0 .835-.38.835-.835V.835A.832.832 0 0 0 41.75 0a.837.837 0 0 0-.835.835v.886a.833.833 0 0 0 .835.844ZM38.45 2.835c.152.27.44.422.726.422A.83.83 0 0 0 39.902 2l-.448-.777A.83.83 0 0 0 38.307.92a.83.83 0 0 0-.304 1.148l.447.768ZM36.105 4.581l.767.44c.136.075.279.109.422.109a.836.836 0 0 0 .726-.422.847.847 0 0 0-.304-1.147l-.768-.448a.84.84 0 0 0-1.147.304.85.85 0 0 0 .303 1.164ZM35.708 7.712h.886c.464 0 .835-.38.835-.835a.832.832 0 0 0-.835-.835h-.886a.837.837 0 0 0-.835.835c0 .455.37.835.835.835ZM43.9 3.139c.136.075.28.11.423.11a.836.836 0 0 0 .725-.423l.447-.768a.847.847 0 0 0-.303-1.147.84.84 0 0 0-1.148.304l-.447.768a.84.84 0 0 0 .304 1.156ZM42.433 8.184a2.502 2.502 0 0 0-1.249-.32 2.609 2.609 0 0 0-2.607 2.607 2.614 2.614 0 0 0 2.607 2.607h7.459a2.319 2.319 0 0 0 2.32-2.32 2.324 2.324 0 0 0-2.32-2.32h-.034c.009-.042.009-.076.009-.118a3.099 3.099 0 0 0-3.097-3.097 3.098 3.098 0 0 0-3.088 2.961ZM38.425 6.868c0 .11.017.21.026.32a4.26 4.26 0 0 1 2.725-1.004h.068a4.752 4.752 0 0 1 2.202-2.16 3.231 3.231 0 0 0-1.696-.481 3.331 3.331 0 0 0-3.325 3.325ZM3.072 35.808c0-.666.11-1.316.329-1.923l1.46-4.202a2.545 2.545 0 0 0-1.325-.372 2.582 2.582 0 0 0-2.582 2.582v7.333c0 1.265.92 2.32 2.126 2.53v-5.948h-.008Z" fill="#596B86"/><path d="M7.747 26.469 4.979 34.45a4.173 4.173 0 0 0-.227 1.359v6.176h4.176a6.881 6.881 0 0 1 5.223-2.396 6.91 6.91 0 0 1 5.223 2.396h18.115a6.881 6.881 0 0 1 5.223-2.396c2.084 0 3.957.936 5.222 2.396h2.903v-2.514a4.678 4.678 0 0 0-4.345-4.666l-6.193-.439-4.928-8.606a4.16 4.16 0 0 0-3.594-2.084H11.662a4.155 4.155 0 0 0-3.915 2.793Zm14.824 1.156c0-.532.43-.97.97-.97h8.219c.421 0 .81.227 1.02.59l3.603 6.294a.967.967 0 0 1-.843 1.451H23.542a.97.97 0 0 1-.97-.97v-6.395Zm-2.607 0v6.404a.97.97 0 0 1-.97.97H9.3a.964.964 0 0 1-.911-1.283l2.168-6.269c.16-.472.608-.784 1.105-.784h7.333c.54-.009.97.422.97.962ZM49.613 46.5c0 .54-.068 1.062-.186 1.569h2.042c.565 0 1.03-.456 1.03-1.03v-2.345c0-.566-.456-1.03-1.03-1.03h-2.472c.388.87.616 1.822.616 2.835ZM4.093 43.664c-.565 0-1.03.456-1.03 1.03v2.345c0 .565.456 1.03 1.03 1.03h3.324a6.787 6.787 0 0 1 .43-4.404H4.094ZM20.444 43.664c.388.87.616 1.823.616 2.835 0 .54-.067 1.063-.185 1.57h15.111a6.787 6.787 0 0 1 .43-4.404H20.444Z" fill="#596B86"/></svg><svg viewBox="0 0 512 512" style="enable-background:new 0 0 512 512" xml:space="preserve" id="pismo" xmlns="http://www.w3.org/2000/svg"><path style="fill:#fc5271" d="M482 148.958H30c-11.046 0-20 8.954-20 20V455c0 11.046 8.954 20 20 20h452c11.046 0 20-8.954 20-20V168.958c0-11.045-8.954-20-20-20z"/><path style="fill:#ea1b51" d="M482 148.958H30c-7.055 0-13.244 3.662-16.804 9.18L180.294 295.6l151.398.012 167.112-137.474c-3.56-5.518-9.749-9.18-16.804-9.18z"/><path style="fill:#34d4e0" d="M287.979 247.993c-12.596 0-23.955 5.504-31.979 14.324-8.024-8.82-19.383-14.324-31.979-14.324-24.312 0-44.021 20.5-44.021 45.789 0 42.628 76 84.211 76 84.211s76-41.583 76-84.211c0-25.288-19.709-45.789-44.021-45.789z"/><path d="M482 138.958H290.32c-5.523 0-10 4.477-10 10s4.477 10 10 10H482l.063.003-126.851 104.353c-4.265 3.509-4.878 9.811-1.37 14.075a9.977 9.977 0 0 0 7.729 3.647 9.96 9.96 0 0 0 6.347-2.277L492 176.685v270.59l-121.177-99.687c-4.265-3.507-10.567-2.895-14.076 1.37s-2.896 10.566 1.37 14.075l123.945 101.964c-.021 0-.041.003-.062.003H30l-.063-.003 126.851-104.353c4.265-3.509 4.878-9.811 1.37-14.076-3.508-4.264-9.81-4.877-14.076-1.369L20 447.274V176.685l121.177 99.686a9.96 9.96 0 0 0 6.347 2.277 9.983 9.983 0 0 0 7.729-3.647c3.509-4.265 2.896-10.566-1.37-14.075L29.938 158.962l.063-.003h189.654c5.523 0 10-4.477 10-10s-4.477-10-10-10H30c-16.542 0-30 13.458-30 30V455c0 16.542 13.458 30 30 30h452c16.542 0 30-13.458 30-30V168.958c0-16.541-13.458-30-30-30z"/><path d="M256 158.958h.125c5.523 0 10-4.477 10-10s-4.477-10-10-10H256c-5.523 0-10 4.477-10 10s4.477 10 10 10zM224.021 237.994c-29.787 0-54.021 25.027-54.021 55.789 0 20.801 14.004 42.937 41.625 65.795 19.512 16.148 38.766 26.745 39.576 27.188a9.995 9.995 0 0 0 9.6 0c.81-.443 20.063-11.04 39.576-27.188C327.996 336.719 342 314.583 342 293.782c0-30.762-24.234-55.789-54.021-55.789-11.536 0-22.771 3.869-31.979 10.837-9.208-6.967-20.443-10.836-31.979-10.836zm63.958 20c18.759 0 34.021 16.055 34.021 35.788 0 27.838-43.897 59.598-66 72.693-22.107-13.1-66-44.856-66-72.693 0-19.733 15.262-35.788 34.021-35.788 9.368 0 18.098 3.925 24.582 11.053a10.001 10.001 0 0 0 14.794 0c6.484-7.128 15.214-11.053 24.582-11.053zM256 85.802c5.523 0 10-4.477 10-10V37c0-5.523-4.477-10-10-10s-10 4.477-10 10v38.802c0 5.523 4.477 10 10 10zM294.777 106.492a9.96 9.96 0 0 0 6.267 2.213 9.984 9.984 0 0 0 7.794-3.727l29.668-36.829c3.464-4.301 2.787-10.596-1.514-14.061-4.302-3.466-10.596-2.786-14.061 1.514l-29.668 36.829c-3.465 4.3-2.787 10.596 1.514 14.061zM203.212 105.204a9.98 9.98 0 0 0 7.794 3.727 9.96 9.96 0 0 0 6.267-2.213c4.301-3.465 4.979-9.76 1.514-14.061l-29.718-36.891c-3.465-4.301-9.759-4.979-14.061-1.514-4.301 3.465-4.979 9.76-1.514 14.061l29.718 36.891z"/></svg></svg>