<?xml version="1.0" encoding="utf-8"?><svg viewBox="0 0 26 26" xmlns="http://www.w3.org/2000/svg" xmlns:xlink="http://www.w3.org/1999/xlink"><style>:root>svg{display:none}:root>svg:target{display:block}</style><svg viewBox="0 0 25 20" id="github" xmlns="http://www.w3.org/2000/svg"><path d="M21.9678 -0.0202109C21.292 -0.0300309 19.7222 0.195329 17.1013 1.91851C15.6728 1.56781 14.1529 1.39475 12.6304 1.39475C10.9552 1.39475 9.26234 1.60371 7.68363 2.02913C3.92064 -0.492611 2.25969 0.0241691 2.25969 0.0241691C1.17536 2.68783 1.84543 4.65993 2.04909 5.14971C0.774618 6.50087 -0.00341797 8.22625 -0.00341797 10.3409C-0.00341797 11.9373 0.181552 13.3692 0.633462 14.6139C0.658525 14.71 0.650402 14.6886 0.692628 14.7708C0.792188 15.0285 0.902886 15.2786 1.02731 15.5202C1.06994 15.6071 1.10875 15.6714 1.10875 15.6714C2.37911 17.9976 4.8834 19.5002 9.33914 19.972L16.0782 19.9795C20.83 19.5166 23.1102 18.0095 24.161 15.6677L24.2278 15.5152C24.3273 15.2786 24.4141 15.0325 24.6515 14.2039C24.8889 13.3754 24.9951 11.9405 24.9951 10.3403C24.9951 8.04515 24.1176 6.20871 22.6925 4.81157C22.9416 4.02197 23.2742 2.26841 22.3604 0.0235291C22.3604 0.0235291 22.2323 -0.0163709 21.9679 -0.0202309L21.9678 -0.0202109ZM16.6571 8.40215C17.7544 8.39981 18.6943 8.58487 19.4 9.31213V9.31275C20.283 10.2236 20.7997 11.3232 20.7997 12.5083C20.7997 18.0415 17.177 18.192 12.7087 18.192C8.23952 18.192 4.6176 17.4252 4.6176 12.5083C4.6176 11.3311 5.12679 10.238 5.99888 9.33087C7.45362 7.81907 9.91543 8.61963 12.7087 8.61963C14.1425 8.61941 15.4891 8.40463 16.6572 8.40213L16.6571 8.40215ZM8.33385 10.0315C7.40409 10.0315 6.65034 11.2663 6.65034 12.7902C6.65034 14.3143 7.40405 15.5496 8.33385 15.5496C9.2636 15.5496 10.0174 14.3143 10.0174 12.7902C10.0174 11.2665 9.26365 10.0326 8.33385 10.0315ZM17.3665 10.0315C16.4368 10.0315 15.683 11.2663 15.683 12.7902C15.683 14.3143 16.4367 15.5496 17.3665 15.5496C18.2963 15.5496 19.05 14.3143 19.05 12.7902C19.05 11.2665 18.2963 10.0326 17.3665 10.0315Z"/></svg><svg viewBox="0 0 26 26" id="pinterest" xmlns="http://www.w3.org/2000/svg"><path d="M0 13C0 18.5499 3.47858 23.2884 8.37417 25.1528C8.255 24.1378 8.12825 22.464 8.40125 21.2897C8.63633 20.28 9.919 14.8568 9.919 14.8568C9.919 14.8568 9.53225 14.0822 9.53225 12.935C9.53225 11.1367 10.5744 9.79333 11.8733 9.79333C12.9783 9.79333 13.5113 10.6221 13.5113 11.6155C13.5113 12.7259 12.8039 14.3856 12.4388 15.925C12.1344 17.2131 13.0856 18.2639 14.3553 18.2639C16.6552 18.2639 18.4243 15.8383 18.4243 12.337C18.4243 9.23758 16.1969 7.072 13.0173 7.072C9.33617 7.072 7.17492 9.83342 7.17492 12.688C7.17492 13.8006 7.60283 14.9923 8.138 15.6412C8.18363 15.6902 8.21586 15.7501 8.23161 15.8152C8.24736 15.8803 8.24609 15.9483 8.22792 16.0128C8.12933 16.4223 7.9105 17.3008 7.86825 17.4807C7.81083 17.7168 7.68083 17.7677 7.43492 17.6529C5.81858 16.9011 4.80892 14.5383 4.80892 12.6403C4.80892 8.55725 7.774 4.80892 13.3586 4.80892C17.8479 4.80892 21.3373 8.008 21.3373 12.2828C21.3373 16.7429 18.5261 20.3331 14.6217 20.3331C13.3098 20.3331 12.0781 19.6506 11.6556 18.8457C11.6556 18.8457 11.0067 21.3178 10.8496 21.9223C10.5441 23.0967 9.69692 24.583 9.1715 25.4269C10.3827 25.7996 11.6675 26 13 26C20.1793 26 26 20.1793 26 13C26 5.82075 20.1793 0 13 0C5.82075 0 0 5.82075 0 13Z"/></svg><svg viewBox="0 0 26 18" id="youtube" xmlns="http://www.w3.org/2000/svg"><path d="M25.4583 2.72129C25.3111 2.19612 25.0243 1.72066 24.6284 1.34546C24.2214 0.958709 23.7226 0.682061 23.1789 0.541622C21.1444 0.00537205 12.9934 0.00537213 12.9934 0.00537213C9.59538 -0.0332892 6.19815 0.136753 2.82094 0.514539C2.27731 0.665353 1.77938 0.948183 1.37144 1.33787C0.970603 1.72354 0.68027 2.19912 0.528603 2.72021C0.16427 4.68293 -0.0127475 6.67583 -6.38066e-05 8.67204C-0.0130638 10.6665 0.16352 12.6587 0.528603 14.6239C0.67702 15.1428 0.96627 15.6162 1.36819 15.9986C1.7701 16.381 2.2706 16.6573 2.82094 16.8035C4.88252 17.3387 12.9934 17.3387 12.9934 17.3387C16.3958 17.3774 19.7974 17.2074 23.1789 16.8295C23.7226 16.6891 24.2214 16.4125 24.6284 16.0257C25.0293 15.6433 25.3142 15.1677 25.4572 14.6499C25.831 12.6879 26.0128 10.6942 25.9999 8.69696C26.0281 6.69128 25.8465 4.68815 25.4583 2.72021V2.72129ZM10.4021 12.3814V4.96379L17.1838 8.67312L10.4021 12.3814Z"/></svg></svg>