<svg width="26" height="18" viewBox="0 0 26 18" fill="none" xmlns="http://www.w3.org/2000/svg">
<path d="M25.4583 2.72129C25.3111 2.19612 25.0243 1.72066 24.6284 1.34546C24.2214 0.958709 23.7226 0.682061 23.1789 0.541622C21.1444 0.00537205 12.9934 0.00537213 12.9934 0.00537213C9.59538 -0.0332892 6.19815 0.136753 2.82094 0.514539C2.27731 0.665353 1.77938 0.948183 1.37144 1.33787C0.970603 1.72354 0.68027 2.19912 0.528603 2.72021C0.16427 4.68293 -0.0127475 6.67583 -6.38066e-05 8.67204C-0.0130638 10.6665 0.16352 12.6587 0.528603 14.6239C0.67702 15.1428 0.96627 15.6162 1.36819 15.9986C1.7701 16.381 2.2706 16.6573 2.82094 16.8035C4.88252 17.3387 12.9934 17.3387 12.9934 17.3387C16.3958 17.3774 19.7974 17.2074 23.1789 16.8295C23.7226 16.6891 24.2214 16.4125 24.6284 16.0257C25.0293 15.6433 25.3142 15.1677 25.4572 14.6499C25.831 12.6879 26.0128 10.6942 25.9999 8.69696C26.0281 6.69128 25.8465 4.68815 25.4583 2.72021V2.72129ZM10.4021 12.3814V4.96379L17.1838 8.67312L10.4021 12.3814Z" fill="#F8F8F8"/>
</svg>
